<svg width="36" height="36" viewBox="0 0 36 36" fill="none" xmlns="http://www.w3.org/2000/svg">
<g clip-path="url(#clip0_76_2916)">
<path d="M34.2727 28.4545C34.2727 29.2261 33.9662 29.966 33.4207 30.5116C32.8751 31.0571 32.1352 31.3636 31.3636 31.3636H5.1818C4.41026 31.3636 3.67032 31.0571 3.12476 30.5116C2.5792 29.966 2.27271 29.2261 2.27271 28.4545V12.4545C2.27271 11.683 2.5792 10.9431 3.12476 10.3975C3.67032 9.85195 4.41026 9.54545 5.1818 9.54545H11L13.9091 5.18182H22.6363L25.5454 9.54545H31.3636C32.1352 9.54545 32.8751 9.85195 33.4207 10.3975C33.9662 10.9431 34.2727 11.683 34.2727 12.4545V28.4545Z" stroke="#F93711" stroke-width="2" stroke-linecap="round" stroke-linejoin="round"/>
<path d="M18.2728 25.5455C21.4861 25.5455 24.091 22.9406 24.091 19.7273C24.091 16.514 21.4861 13.9091 18.2728 13.9091C15.0595 13.9091 12.4546 16.514 12.4546 19.7273C12.4546 22.9406 15.0595 25.5455 18.2728 25.5455Z" stroke="#F93711" stroke-width="2" stroke-linecap="round" stroke-linejoin="round"/>
</g>
<defs>
<clipPath id="clip0_76_2916">
<rect width="34.9091" height="34.9091" fill="white" transform="translate(0.818115 0.818176)"/>
</clipPath>
</defs>
</svg>
