<svg width="144" height="144" viewBox="0 0 144 144" fill="none" xmlns="http://www.w3.org/2000/svg">
<circle cx="72" cy="72" r="72" fill="#FAD56C"/>
<g clip-path="url(#clip0_76_2913)">
<path d="M87.2727 81.4545C87.2727 82.2261 86.9662 82.966 86.4207 83.5116C85.8751 84.0571 85.1352 84.3636 84.3636 84.3636H58.1818C57.4103 84.3636 56.6703 84.0571 56.1248 83.5116C55.5792 82.966 55.2727 82.2261 55.2727 81.4545V65.4545C55.2727 64.683 55.5792 63.9431 56.1248 63.3975C56.6703 62.8519 57.4103 62.5455 58.1818 62.5455H64L66.9091 58.1818H75.6363L78.5454 62.5455H84.3636C85.1352 62.5455 85.8751 62.8519 86.4207 63.3975C86.9662 63.9431 87.2727 64.683 87.2727 65.4545V81.4545Z" stroke="#F93711" stroke-width="2" stroke-linecap="round" stroke-linejoin="round"/>
<path d="M71.2728 78.5455C74.4861 78.5455 77.091 75.9406 77.091 72.7273C77.091 69.514 74.4861 66.9091 71.2728 66.9091C68.0595 66.9091 65.4546 69.514 65.4546 72.7273C65.4546 75.9406 68.0595 78.5455 71.2728 78.5455Z" stroke="#F93711" stroke-width="2" stroke-linecap="round" stroke-linejoin="round"/>
</g>
<defs>
<clipPath id="clip0_76_2913">
<rect width="34.9091" height="34.9091" fill="white" transform="translate(53.8181 53.8182)"/>
</clipPath>
</defs>
</svg>
