<svg width="14" height="14" viewBox="0 0 14 14" fill="none" xmlns="http://www.w3.org/2000/svg">
<path d="M0.333374 13.6666L3.95317 12.5124C4.92539 13.0464 6.01914 13.3221 7.12157 13.3221C10.7327 13.3221 13.6667 10.4108 13.6667 6.82765C13.6667 3.24454 10.7327 0.333252 7.12157 0.333252C3.51046 0.333252 0.57643 3.24454 0.57643 6.82765C0.57643 8.00767 0.89761 9.17046 1.51393 10.1782L0.333374 13.6666ZM7.12157 11.9999C6.06254 11.9999 5.21879 11.577 4.33337 10.9999L2.33337 11.6666L3.00004 9.99992C2.32296 9.0783 2.00004 7.96808 2.00004 6.83113C2.00004 3.85094 4.1181 1.66659 7.12157 1.66659C10.125 1.66659 12.3334 3.84746 12.3334 6.82765C12.3334 9.80784 10.125 11.9999 7.12157 11.9999ZM8.87504 10.0835C9.36983 10.0835 10.1771 9.77339 10.3768 9.29105C10.4549 9.09294 10.5243 8.85177 10.5243 8.63644C10.5243 8.60199 10.5243 8.55031 10.507 8.50724C10.4462 8.40388 9.03129 7.67175 8.88372 7.67175C8.79344 7.67175 8.66983 7.80543 8.53733 7.96585L8.33497 8.21315C8.19969 8.37356 8.06775 8.50724 7.96358 8.50724C7.89414 8.50724 7.83337 8.4814 7.77261 8.44695C7.2865 8.20578 6.86115 7.95599 6.46185 7.57701C6.13199 7.26693 5.7674 6.80181 5.57643 6.39699C5.55039 6.35392 5.53303 6.31086 5.53303 6.26779C5.53303 6.06969 6.13199 5.69932 6.13199 5.37201C6.13199 5.28588 5.68928 4.11448 5.62851 3.96805C5.54171 3.7441 5.4983 3.6752 5.26393 3.6752C5.15108 3.6752 5.04692 3.64936 4.94275 3.64936C4.76046 3.64936 4.62157 3.71826 4.49136 3.83885C4.07469 4.22645 3.86636 4.63127 3.849 5.19975V5.26865C3.84032 5.86297 4.13546 6.45728 4.46532 6.93963C5.21185 8.03351 5.98442 8.98958 7.22574 9.54945C7.599 9.72171 8.45837 10.0835 8.87504 10.0835Z" fill="white"/>
</svg>
