<svg width="849" height="950" viewBox="0 0 849 950" fill="none" xmlns="http://www.w3.org/2000/svg">
<g filter="url(#filter0_f_27_1727)">
<path d="M-186.146 950C-194.33 940.905 -202.118 931.41 -209.512 921.518C-253.239 861.389 -276.317 788.99 -278.746 704.319H52.8488C57.7073 752.176 74.1049 788.99 102.042 814.759C129.978 839.301 166.417 851.572 211.359 851.572C257.515 851.572 293.954 841.142 320.676 820.281C347.398 798.193 360.759 768.129 360.759 730.088C360.759 698.183 349.827 671.8 327.963 650.939C307.315 630.079 281.2 612.899 249.62 599.401C219.254 585.902 175.527 570.564 118.439 553.384C35.8439 527.615 -31.5683 501.845 -83.7975 476.076C-136.027 450.307 -180.968 412.266 -218.622 361.954C-256.276 311.643 -275.102 245.992 -275.102 165.003C-275.102 120.654 -269.238 79.8929 -257.509 42.7201C-356.07 153.981 -416 300.902 -416 461.964C-416 658.896 -326.404 834.686 -186.146 950Z" fill="#F93711"/>
<path d="M600.418 948.952C611.444 935.642 621.441 921.588 630.407 906.792C668.061 846.664 686.888 779.786 686.888 706.159C686.888 628.851 668.061 565.655 630.407 516.571C592.754 467.486 547.812 430.059 495.583 404.29C444.568 378.52 377.763 351.524 295.168 323.3C212.573 296.304 151.841 271.148 112.973 247.833C74.1049 224.518 54.6708 191.999 54.6708 150.278C54.6708 112.237 66.2098 83.3999 89.2879 63.7661C112.366 42.9052 142.732 32.4747 180.385 32.4747C224.112 32.4747 259.944 44.7458 287.881 69.2881C315.817 92.6033 331 125.122 333.429 166.844H670.49C667.349 104.006 653.484 48.3918 628.894 0C751.948 114.893 829 279.337 829 461.964C829 658.3 739.945 833.622 600.418 948.952Z" fill="#F93711"/>
</g>
<defs>
<filter id="filter0_f_27_1727" x="-436" y="-20" width="1285" height="990" filterUnits="userSpaceOnUse" color-interpolation-filters="sRGB">
<feFlood flood-opacity="0" result="BackgroundImageFix"/>
<feBlend mode="normal" in="SourceGraphic" in2="BackgroundImageFix" result="shape"/>
<feGaussianBlur stdDeviation="10" result="effect1_foregroundBlur_27_1727"/>
</filter>
</defs>
</svg>
