<svg width="223" height="45" viewBox="0 0 223 45" fill="none" xmlns="http://www.w3.org/2000/svg">
<path d="M10.8927 45C10.5049 44.5692 10.1358 44.1194 9.78537 43.6508C7.71317 40.8026 6.61951 37.3732 6.50439 33.3625H22.2185C22.4488 35.6294 23.2259 37.3732 24.5498 38.5938C25.8737 39.7564 27.6005 40.3376 29.7302 40.3376C31.9176 40.3376 33.6444 39.8436 34.9107 38.8554C36.1771 37.8091 36.8102 36.385 36.8102 34.5831C36.8102 33.0718 36.2922 31.8221 35.2561 30.834C34.2776 29.8458 33.04 29.0321 31.5434 28.3927C30.1044 27.7533 28.0322 27.0267 25.3268 26.2129C21.4127 24.9923 18.2181 23.7716 15.7429 22.551C13.2678 21.3303 11.138 19.5284 9.35366 17.1452C7.56927 14.762 6.67707 11.6523 6.67707 7.81593C6.67707 5.71518 6.95498 3.7844 7.51081 2.02358C2.84006 7.29385 0 14.2533 0 21.8825C0 31.2108 4.24592 39.5378 10.8927 45Z" fill="#F93711"/>
<path d="M48.1676 44.9503C48.6901 44.3199 49.1639 43.6542 49.5888 42.9533C51.3732 40.1051 52.2654 36.9372 52.2654 33.4497C52.2654 29.7877 51.3732 26.7942 49.5888 24.4691C47.8044 22.1441 45.6746 20.3712 43.1995 19.1506C40.782 17.9299 37.6161 16.6511 33.702 15.3142C29.7878 14.0354 26.9098 12.8439 25.0678 11.7395C23.2259 10.6351 22.3049 9.09471 22.3049 7.11841C22.3049 5.31649 22.8517 3.95052 23.9454 3.0205C25.039 2.03235 26.4781 1.53828 28.2624 1.53828C30.3346 1.53828 32.0327 2.11954 33.3566 3.28207C34.6805 4.38647 35.4 5.92682 35.5151 7.90311H51.4883C51.3394 4.92661 50.6824 2.29224 49.5171 0C55.3485 5.4423 59 13.2318 59 21.8825C59 31.1826 54.7797 39.4874 48.1676 44.9503Z" fill="#F93711"/>
<path d="M75.7 23.8C75.7 24.2 75.675 24.6167 75.625 25.05H65.95C66.0167 25.9167 66.2917 26.5833 66.775 27.05C67.275 27.5 67.8833 27.725 68.6 27.725C69.6667 27.725 70.4083 27.275 70.825 26.375H75.375C75.1417 27.2917 74.7167 28.1167 74.1 28.85C73.5 29.5833 72.7417 30.1583 71.825 30.575C70.9083 30.9917 69.8833 31.2 68.75 31.2C67.3833 31.2 66.1667 30.9083 65.1 30.325C64.0333 29.7417 63.2 28.9083 62.6 27.825C62 26.7417 61.7 25.475 61.7 24.025C61.7 22.575 61.9917 21.3083 62.575 20.225C63.175 19.1417 64.0083 18.3083 65.075 17.725C66.1417 17.1417 67.3667 16.85 68.75 16.85C70.1 16.85 71.3 17.1333 72.35 17.7C73.4 18.2667 74.2167 19.075 74.8 20.125C75.4 21.175 75.7 22.4 75.7 23.8ZM71.325 22.675C71.325 21.9417 71.075 21.3583 70.575 20.925C70.075 20.4917 69.45 20.275 68.7 20.275C67.9833 20.275 67.375 20.4833 66.875 20.9C66.3917 21.3167 66.0917 21.9083 65.975 22.675H71.325ZM77.1053 24.025C77.1053 22.575 77.3969 21.3083 77.9803 20.225C78.5803 19.1417 79.4053 18.3083 80.4553 17.725C81.5219 17.1417 82.7386 16.85 84.1053 16.85C85.8553 16.85 87.3136 17.3083 88.4803 18.225C89.6636 19.1417 90.4386 20.4333 90.8053 22.1H86.2553C85.8719 21.0333 85.1303 20.5 84.0303 20.5C83.2469 20.5 82.6219 20.8083 82.1553 21.425C81.6886 22.025 81.4553 22.8917 81.4553 24.025C81.4553 25.1583 81.6886 26.0333 82.1553 26.65C82.6219 27.25 83.2469 27.55 84.0303 27.55C85.1303 27.55 85.8719 27.0167 86.2553 25.95H90.8053C90.4386 27.5833 89.6636 28.8667 88.4803 29.8C87.2969 30.7333 85.8386 31.2 84.1053 31.2C82.7386 31.2 81.5219 30.9083 80.4553 30.325C79.4053 29.7417 78.5803 28.9083 77.9803 27.825C77.3969 26.7417 77.1053 25.475 77.1053 24.025ZM99.442 31.2C98.0753 31.2 96.842 30.9083 95.742 30.325C94.6587 29.7417 93.8003 28.9083 93.167 27.825C92.5503 26.7417 92.242 25.475 92.242 24.025C92.242 22.5917 92.5587 21.3333 93.192 20.25C93.8253 19.15 94.692 18.3083 95.792 17.725C96.892 17.1417 98.1253 16.85 99.492 16.85C100.859 16.85 102.092 17.1417 103.192 17.725C104.292 18.3083 105.159 19.15 105.792 20.25C106.425 21.3333 106.742 22.5917 106.742 24.025C106.742 25.4583 106.417 26.725 105.767 27.825C105.134 28.9083 104.259 29.7417 103.142 30.325C102.042 30.9083 100.809 31.2 99.442 31.2ZM99.442 27.5C100.259 27.5 100.95 27.2 101.517 26.6C102.1 26 102.392 25.1417 102.392 24.025C102.392 22.9083 102.109 22.05 101.542 21.45C100.992 20.85 100.309 20.55 99.492 20.55C98.6587 20.55 97.967 20.85 97.417 21.45C96.867 22.0333 96.592 22.8917 96.592 24.025C96.592 25.1417 96.8587 26 97.392 26.6C97.942 27.2 98.6253 27.5 99.442 27.5ZM117.51 16.9C119.143 16.9 120.443 17.4333 121.41 18.5C122.393 19.55 122.885 21 122.885 22.85V31H118.635V23.425C118.635 22.4917 118.393 21.7667 117.91 21.25C117.427 20.7333 116.777 20.475 115.96 20.475C115.143 20.475 114.493 20.7333 114.01 21.25C113.527 21.7667 113.285 22.4917 113.285 23.425V31H109.01V17.05H113.285V18.9C113.718 18.2833 114.302 17.8 115.035 17.45C115.768 17.0833 116.593 16.9 117.51 16.9ZM125.006 24C125.006 22.5667 125.272 21.3083 125.806 20.225C126.356 19.1417 127.097 18.3083 128.031 17.725C128.964 17.1417 130.006 16.85 131.156 16.85C132.072 16.85 132.906 17.0417 133.656 17.425C134.422 17.8083 135.022 18.325 135.456 18.975V12.5H139.731V31H135.456V29C135.056 29.6667 134.481 30.2 133.731 30.6C132.997 31 132.139 31.2 131.156 31.2C130.006 31.2 128.964 30.9083 128.031 30.325C127.097 29.725 126.356 28.8833 125.806 27.8C125.272 26.7 125.006 25.4333 125.006 24ZM135.456 24.025C135.456 22.9583 135.156 22.1167 134.556 21.5C133.972 20.8833 133.256 20.575 132.406 20.575C131.556 20.575 130.831 20.8833 130.231 21.5C129.647 22.1 129.356 22.9333 129.356 24C129.356 25.0667 129.647 25.9167 130.231 26.55C130.831 27.1667 131.556 27.475 132.406 27.475C133.256 27.475 133.972 27.1667 134.556 26.55C135.156 25.9333 135.456 25.0917 135.456 24.025ZM163.321 13.45V31H159.046V23.775H152.396V31H148.121V13.45H152.396V20.325H159.046V13.45H163.321ZM165.557 24C165.557 22.5667 165.824 21.3083 166.357 20.225C166.907 19.1417 167.649 18.3083 168.582 17.725C169.516 17.1417 170.557 16.85 171.707 16.85C172.691 16.85 173.549 17.05 174.282 17.45C175.032 17.85 175.607 18.375 176.007 19.025V17.05H180.282V31H176.007V29.025C175.591 29.675 175.007 30.2 174.257 30.6C173.524 31 172.666 31.2 171.682 31.2C170.549 31.2 169.516 30.9083 168.582 30.325C167.649 29.725 166.907 28.8833 166.357 27.8C165.824 26.7 165.557 25.4333 165.557 24ZM176.007 24.025C176.007 22.9583 175.707 22.1167 175.107 21.5C174.524 20.8833 173.807 20.575 172.957 20.575C172.107 20.575 171.382 20.8833 170.782 21.5C170.199 22.1 169.907 22.9333 169.907 24C169.907 25.0667 170.199 25.9167 170.782 26.55C171.382 27.1667 172.107 27.475 172.957 27.475C173.807 27.475 174.524 27.1667 175.107 26.55C175.707 25.9333 176.007 25.0917 176.007 24.025ZM191.875 16.9C193.509 16.9 194.809 17.4333 195.775 18.5C196.759 19.55 197.25 21 197.25 22.85V31H193V23.425C193 22.4917 192.759 21.7667 192.275 21.25C191.792 20.7333 191.142 20.475 190.325 20.475C189.509 20.475 188.859 20.7333 188.375 21.25C187.892 21.7667 187.65 22.4917 187.65 23.425V31H183.375V17.05H187.65V18.9C188.084 18.2833 188.667 17.8 189.4 17.45C190.134 17.0833 190.959 16.9 191.875 16.9ZM199.371 24C199.371 22.5667 199.638 21.3083 200.171 20.225C200.721 19.1417 201.463 18.3083 202.396 17.725C203.329 17.1417 204.371 16.85 205.521 16.85C206.438 16.85 207.271 17.0417 208.021 17.425C208.788 17.8083 209.388 18.325 209.821 18.975V12.5H214.096V31H209.821V29C209.421 29.6667 208.846 30.2 208.096 30.6C207.363 31 206.504 31.2 205.521 31.2C204.371 31.2 203.329 30.9083 202.396 30.325C201.463 29.725 200.721 28.8833 200.171 27.8C199.638 26.7 199.371 25.4333 199.371 24ZM209.821 24.025C209.821 22.9583 209.521 22.1167 208.921 21.5C208.338 20.8833 207.621 20.575 206.771 20.575C205.921 20.575 205.196 20.8833 204.596 21.5C204.013 22.1 203.721 22.9333 203.721 24C203.721 25.0667 204.013 25.9167 204.596 26.55C205.196 27.1667 205.921 27.475 206.771 27.475C207.621 27.475 208.338 27.1667 208.921 26.55C209.521 25.9333 209.821 25.0917 209.821 24.025ZM219.189 31.2C218.439 31.2 217.822 30.9833 217.339 30.55C216.872 30.1 216.639 29.55 216.639 28.9C216.639 28.2333 216.872 27.675 217.339 27.225C217.822 26.775 218.439 26.55 219.189 26.55C219.922 26.55 220.522 26.775 220.989 27.225C221.472 27.675 221.714 28.2333 221.714 28.9C221.714 29.55 221.472 30.1 220.989 30.55C220.522 30.9833 219.922 31.2 219.189 31.2Z" fill="black"/>
</svg>
